<svg 
          width="72.5673828125"
          height="68.48738098144531"
          fill="none"
          xmlns="http://www.w3.org/2000/svg">
          <path d="M 5.817379476253386 34.76632071723981 C 5.828823469679236 39.766409488564776 4.752886985238371 44.70919433820486 2.6641371876177358 49.25211660252086 C 2.589991373517753 49.421164048028814 2.482931535239228 49.57375695669664 2.3492003758914204 49.70099931169085 C 2.215469216543613 49.82824166668506 2.0577429159445946 49.92758844746322 1.8852195331760422 49.99324148768385 C 1.7126961504074896 50.05889452790447 1.528828424662353 50.089541097977246 1.3443375491444638 50.083396793202105 C 1.1598466736265747 50.077252488426964 0.9784250262475258 50.034436213815596 0.8106521243998855 49.9574499109653 C 0.6428792225522453 49.88046360811501 0.4921126710645487 49.77084964572433 0.367143840489606 49.63499151724756 C 0.24217500991466334 49.499133388770794 0.14550476221166264 49.33975289869651 0.08277072023699192 49.16614679485808 C 0.02003667826232121 48.99254069101965 -0.007505939429961075 48.80818081844166 0.0017489806179431346 48.62381979579669 C 0.011003900665847345 48.43945877315172 0.0568713530944298 48.258786491949145 0.13667624242517654 48.09233583553962 C 2.057732606786177 43.913031349825324 3.047070899069089 39.36598658231422 3.0361292543554046 34.76632071723981 C 3.039479392167249 29.875464687000623 4.07312507515039 25.040175915125104 6.069733417639098 20.575420740907653 C 8.066341760127806 16.1106655666902 10.981122086882039 12.116605168572116 14.624206845567048 8.853414124908396 C 14.899021365939367 8.607413386581056 15.260303097762673 8.480658167844974 15.62857508137306 8.50103260441207 C 15.996847064983449 8.521407040979165 16.341941863946108 8.6872421680662 16.58794258700822 8.962056705491742 C 16.833943310070335 9.236871242917283 16.960699847144102 9.598154323362788 16.94032541184131 9.966426329825769 C 16.91995097653852 10.33469833628875 16.754114533538853 10.679793156665774 16.479300013166537 10.925793894993113 C 13.127410706390087 13.927916499226244 10.445593239558846 17.60251903876538 8.608554672052584 21.710218488686873 C 6.771516104546323 25.817917938608367 5.820472312818295 30.266554436990738 5.817379476253386 34.76632071723981 L 5.817379476253386 34.76632071723981 Z M 54.4892532204303 33.37569568577298 C 54.12043654026077 33.37569568577298 53.76672459034208 33.52220649106475 53.50593183089953 33.782999266690425 C 53.245139071456975 34.0437920423161 53.09862827525672 34.39750401418388 53.09862827525672 34.76632071723981 C 53.11792727236358 45.45976444381358 51.035036056796386 56.052719088161275 46.96840738848149 65.94274682009075 C 46.896726691017534 66.11205132111249 46.85932983590555 66.29388614390592 46.8583802584009 66.47773726207465 C 46.85743068089625 66.66158838024339 46.89294643659627 66.84380582307182 46.96287446833906 67.01384171489461 C 47.03280250008185 67.1838776067174 47.135750517574174 67.33835749557038 47.26576869105452 67.46834752637996 C 47.39578686453486 67.59833755718954 47.550292418268704 67.70125505767058 47.72034343690744 67.771146281248 C 47.89039445554618 67.84103750482541 48.07261817617208 67.87651316644667 48.25646907571292 67.87552379177329 C 48.440319975253765 67.87453441709991 48.622149295453184 67.83710260242275 48.79143826524606 67.76538525378152 C 48.96072723503893 67.69366790514029 49.11411240601345 67.58909320475048 49.24272402692994 67.45771137530234 C 49.371335647846436 67.3263295458542 49.47262263197645 67.17074827618012 49.540716602270905 66.99996962757892 C 53.74578332228219 56.77468696555417 55.899674018817265 45.822477751712675 55.87987816560388 34.76632071723981 C 55.87987816560387 34.39750401418388 55.733367369403624 34.0437920423161 55.47257460996107 33.782999266690425 C 55.21178185051852 33.52220649106475 54.85806990059983 33.37569568577298 54.4892532204303 33.37569568577298 Z M 49.20313951101165 24.567477245724202 C 49.45018298213557 24.83831381540072 49.79417771618781 25.00064943239449 50.16029225714589 25.019171506051876 C 50.52640679810397 25.037693579709263 50.885022322536315 24.910901422841835 51.15813822515218 24.66638018871228 C 51.43125412776804 24.421858954582728 51.59677501209097 24.079387654590942 51.6186914954543 23.713460624360323 C 51.64060797881763 23.347533594129704 51.51715092674914 22.98775573379433 51.27517301343808 22.712383963009554 C 48.83412394179187 19.983764281062843 45.62212637129742 18.060610158190737 42.064187179593254 17.197387115876563 C 38.50624798788909 16.334164073562388 34.770064752620144 16.57155978272671 31.349995002950084 17.878161790199396 C 27.929925253280025 19.184763797672083 24.987173807077347 21.49898545662775 22.91111146481926 24.514620083959922 C 20.835049122561173 27.530254711292095 19.723529156223556 31.10516156977499 19.72362826488753 34.76632071723981 C 19.725138576993906 43.010073845267264 17.63430339236355 51.1193446461283 13.646944878886403 58.33463633928856 C 13.55837442298178 58.49435990159874 13.502131619017069 58.669966179152674 13.481426750579697 58.85142596613665 C 13.460721882142325 59.03288575312063 13.475960798523133 59.21664418210651 13.526273641168446 59.39221456928158 C 13.57658648381376 59.56778495645664 13.660987372103596 59.73172475760212 13.774658256095318 59.874676747938516 C 13.88832914008704 60.01762873827491 14.029042998079733 60.13679160327683 14.188766560839463 60.225362054316605 C 14.348490123599193 60.31393250535638 14.524095053691871 60.37017798464472 14.705554829415622 60.39088284530106 C 14.887014605139372 60.411587705957395 15.070775675128976 60.396348808057766 15.246346051409269 60.346035951929395 C 15.421916427689562 60.29572309580102 15.585857544865293 60.21131957058899 15.728809526331002 60.09764866918262 C 15.87176150779671 59.983977767776246 15.990924375765118 59.84326789002285 16.079494810947814 59.6835443173517 C 20.29566251563125 52.05523774843412 22.50649475269216 43.48153781932487 22.504879481437982 34.76562578667065 C 22.504814374971343 31.66762696710491 23.445405119549534 28.642624039122822 25.202188660496862 26.090897673662848 C 26.95897220144419 23.539171308202874 29.44914019603983 21.581002100689027 32.34318069258138 20.475504578540107 C 35.23722118912292 19.370007056391188 38.39871743550939 19.169292391972327 41.4093292122856 19.89991639880208 C 44.41994098906181 20.630540405631834 47.13775492879952 22.25806199646724 49.20313951101165 24.56712712803287 L 49.20313951101165 24.567477245724202 Z M 37.80175387834735 0.0006955936708491803 C 33.85436547439622 -0.003972123841617485 29.93514794926469 0.6652600012379271 26.212981025058845 1.9795548171700426 C 25.865232990631196 2.1024629841161704 25.58055234662883 2.3584802153545326 25.421566556978114 2.691284404498197 C 25.262580767327396 3.0240885936418618 25.24231332451144 3.4064180657862266 25.365221483830677 3.7541661217928834 C 25.488129643149914 4.10191417779954 25.7441455322982 4.3865948394673575 26.076949700790177 4.545580638983713 C 26.409753869282152 4.704566438500069 26.792084643904904 4.724833882573689 27.139832678332553 4.601925715627561 C 31.964824176235968 2.9015320674487572 37.12711161030032 2.3824583039481855 42.19404370132522 3.0882077915896438 C 47.26097579235012 3.793957279231102 52.084926220667775 5.7039682293181855 56.26160191211267 8.658162506634913 C 60.43827760355756 11.61235678395164 63.845991614463976 15.524663374940078 66.19914026333694 20.0671930830567 C 68.55228891220992 24.609722791173326 69.78231277640424 29.650130797543397 69.78612761733967 34.76597590436198 C 69.78866418673975 42.14827638869486 68.96810884808032 49.507842431650175 67.33966979133443 56.70829722453851 C 67.29501938087196 56.88785668641587 67.28665161571075 57.07452144865698 67.31505545819843 57.2573560319378 C 67.3434593006861 57.440190615218626 67.4080631520225 57.615518400424506 67.50508447578422 57.77306878164437 C 67.60210579954592 57.93061916286423 67.72959262393276 58.067225539430275 67.88007641437284 58.174881880584095 C 68.03056020481291 58.282538221737916 68.20101529065683 58.35908272013729 68.38145552687641 58.400028775365264 C 68.56189576309599 58.44097483059324 68.74869547566097 58.445498678675335 68.93090685637965 58.413338552449424 C 69.11311823709833 58.381178426223514 69.28707798092195 58.31297983187084 69.4425985256971 58.212737029756106 C 69.59811907047224 58.11249422764137 69.73207127060968 57.98222168442976 69.83660821952118 57.829554435846106 C 69.94114516843268 57.67688718726245 70.01416513954572 57.50489489679655 70.05138949538555 57.32365028631037 C 71.72607127168709 49.92122731814947 72.56994987648133 42.35511968757856 72.56737750768683 34.76562578667065 C 72.55697965748092 25.548400257467613 68.89084358107223 16.711667781727524 62.373277172025084 10.194100968242093 C 55.855710762977935 3.676534154756662 47.01897883558864 0.010397850851126322 37.80175387834735 0 L 37.80175387834735 0.0006955936708491803 Z M 32.325473226200344 61.31509275896371 C 32.15949872854606 61.23884799547857 31.980128334307143 61.19604888509899 31.797609833916276 61.18913526709989 C 31.61509133352541 61.182221649100796 31.433000285033735 61.21132699082861 31.26173352133007 61.27479739557938 C 31.0904667576264 61.338267800330144 30.93338108574511 61.43485669456303 30.799448229526025 61.559045217620266 C 30.66551537330694 61.6832337406775 30.557359111996572 61.83259215328123 30.481156786567624 61.99858615020788 C 29.792368073759263 63.49880713671016 29.04703825837908 64.97241834979401 28.24676947689389 66.41625447355116 C 28.15711965728339 66.57602224609421 28.09992255939024 66.7519258315066 28.078463669263265 66.93386634649254 C 28.05700477913629 67.11580686147848 28.071707652952497 67.30019637677412 28.12172707311902 67.47643736697516 C 28.17174649328554 67.6526783571762 28.25609628130471 67.81729872859492 28.369931324397914 67.96084110737495 C 28.483766367491118 68.10438348615497 28.624842392953656 68.22401995081573 28.78505417466194 68.31287383638332 C 28.945265956370225 68.4017277219509 29.121456519187785 68.45804803071061 29.30350152355885 68.47860151509447 C 29.485546527929916 68.49915499947832 29.669857101965604 68.48353620388693 29.845847055813024 68.43264061088674 C 30.021837009660445 68.38174501788654 30.186037824379643 68.29657836106063 30.329012092277267 68.18203061128135 C 30.471986360174892 68.06748286150207 30.59091753628346 67.92580899966956 30.678973269895575 67.7651571468008 C 31.513457184600323 66.25967262487356 32.29078928011637 64.72321429154289 33.00931138788774 63.159061847758274 C 33.163067470985084 62.8238420206086 33.17740504443518 62.44128170618906 33.04916910168459 62.09549448331806 C 32.920933158934 61.74970726044707 32.66062338615357 61.469000629362 32.325473226200344 61.31509275896371 L 32.325473226200344 61.31509275896371 Z M 37.797581642784536 33.375350872895154 C 37.428764962615006 33.37535087289516 37.0750556651029 33.52186167818692 36.81426290566035 33.7826544538126 C 36.5534701462178 34.04344722943827 36.40695669761096 34.39715920130605 36.40695669761096 34.76597590436198 C 36.40983826668858 40.27781870831538 35.71799798211785 45.76804439723571 34.34779001954258 51.10685976754417 C 34.302272116711414 51.28372672573881 34.292035643040805 51.46782826840444 34.31766663792344 51.648650980441545 C 34.34329763280607 51.82947369247865 34.40429309737934 52.003480081795516 34.497170906168314 52.16072993289716 C 34.68474609538751 52.47831034337773 34.99079769731701 52.70836660475565 35.34799662941213 52.800294163506045 C 35.70519556150725 52.89222172225644 36.08428103378197 52.838491120876355 36.40186142455554 52.65091592001745 C 36.71944181532911 52.46334071915854 36.9495033672444 52.1572864458307 37.04143092029035 51.8000874915701 C 38.469758996234326 46.23477780385019 39.19103517009842 40.51165124055853 39.1882092403647 34.76597590436198 C 39.18820924036469 34.39715920130605 39.041693139351274 34.04344722943827 38.78090037990872 33.7826544538126 C 38.52010762046617 33.52186167818692 38.166398322954066 33.375350872895154 37.797581642784536 33.375350872895154 L 37.797581642784536 33.375350872895154 Z" fill="rgb(255,255,255)"/>
        </svg>